<?xml version="1.0" encoding="utf-8"?>
<!-- Generator: Adobe Illustrator 23.0.2, SVG Export Plug-In . SVG Version: 6.00 Build 0)  -->
<svg version="1.1" id="Слой_1" xmlns="http://www.w3.org/2000/svg" xmlns:xlink="http://www.w3.org/1999/xlink" x="0px" y="0px"
	 viewBox="0 0 500 500" style="enable-background:new 0 0 500 500;" xml:space="preserve">
<style type="text/css">
	.st0{fill:#00B2A7;}
</style>
<path class="st0" d="M253,0c0,0-22.13,4.96-19,23.74c0,0-2.69,2.61,9.35,3.13c0,0-12.48,22.96-3.09,82.43c0,0-10.52,0-6.56,9.39
	l-39.35-4.7c0,0-22.96,1.04-16.7,32.35c0,0-17.22,29.22-47.48,30.78c0,0-3.65,1.04-3.13,21.39c0,0,0.52,97.04,21.39,143.48
	l-12.52,5.74v49.04l22.43,5.22l8.87,9.91l-12.52,26.61c0,0,1.04,7.83,13.57,0L198,425.48l41.22,38.09c0,0,7.74,36.43,13.78,36.43V0z
	"/>
<path class="st0" d="M248.99,0c0,0,22.13,4.96,19,23.74c0,0,2.69,2.61-9.35,3.13c0,0,12.48,22.96,3.09,82.43c0,0,10.52,0,6.56,9.39
	l39.35-4.7c0,0,22.96,1.04,16.7,32.35c0,0,17.22,29.22,47.48,30.78c0,0,3.65,1.04,3.13,21.39c0,0-0.52,97.04-21.39,143.48
	l12.52,5.74v49.04L343.64,402l-8.87,9.91l12.52,26.61c0,0-1.04,7.83-13.57,0l-29.74-13.04l-41.22,38.09c0,0-7.74,36.43-13.78,36.43
	V0z"/>
<g>
</g>
<g>
</g>
<g>
</g>
<g>
</g>
<g>
</g>
<g>
</g>
</svg>
