<?xml version="1.0" encoding="utf-8"?>
<!-- Generator: Adobe Illustrator 23.0.2, SVG Export Plug-In . SVG Version: 6.00 Build 0)  -->
<svg version="1.1" id="Слой_1" xmlns="http://www.w3.org/2000/svg" xmlns:xlink="http://www.w3.org/1999/xlink" x="0px" y="0px"
	 viewBox="0 0 64 64" style="enable-background:new 0 0 64 64;" xml:space="preserve">
<style type="text/css">
	.st0{fill:#01B3A7;stroke:#FFFFFF;stroke-width:2;stroke-miterlimit:10;}
	.st1{fill:none;stroke:#FFFFFF;stroke-miterlimit:10;}
	.st2{fill:none;}
	.st3{fill:#FFFFFF;stroke:#FFFFFF;stroke-width:5;stroke-miterlimit:10;}
</style>
<path class="st0" d="M61.23,32.08c0,16.69-13.04,30.21-29.12,30.21S3,48.77,3,32.08C3,18.93,11.1,7.74,22.41,3.59
	c3.04-1.11,6.3-1.72,9.71-1.72C48.19,1.87,61.23,15.4,61.23,32.08z"/>
<path class="st1" d="M42.1,3.61c-10.5,6.6-19.5-0.19-19.5-0.19s-23.56,23.55,0,57.32c0,0,9-6.78,19.5-0.19"/>
<path class="st1" d="M13.88,8.68c0,0,16.13,15.34,37.34,0.8"/>
<path class="st1" d="M6.79,18c0,0,25.03,17.21,50.65,0"/>
<line class="st1" x1="3.59" y1="31.92" x2="60.64" y2="31.92"/>
<path class="st1" d="M6.79,45.83"/>
<path class="st1" d="M13.88,55.48c0,0,16.13-15.34,37.34-0.8"/>
<path class="st1" d="M6.79,46.17c0,0,25.03-17.21,50.65,0"/>
<path class="st1" d="M29.42,1.84c0,0-20.16,25.2-0.64,60.08"/>
<line class="st1" x1="32.11" y1="1.7" x2="32.11" y2="62.13"/>
<path class="st1" d="M35.77,1.84c0,0,20.16,25.2,0.64,60.08"/>
<path class="st1" d="M23.09,3.61c10.5,6.6,19.5-0.19,19.5-0.19s23.56,23.55,0,57.32c0,0-9-6.78-19.5-0.19"/>
<g>
	<rect x="9.42" y="19" class="st2" width="49.33" height="32.96"/>
	<path class="st3" d="M20.07,31.5l-0.02,0.62c-0.27,0.52-0.67,0.91-1.21,1.15c-0.54,0.25-1.18,0.37-1.91,0.37
		c-1.11,0-2.09-0.3-2.93-0.91c-0.84-0.6-1.5-1.46-1.96-2.55s-0.7-2.37-0.7-3.82v-0.02c0-1.61,0.25-2.98,0.76-4.12
		c0.51-1.14,1.25-2,2.23-2.6c0.98-0.59,2.15-0.89,3.52-0.89c1.37,0,2.54,0.3,3.51,0.91c0.97,0.6,1.71,1.48,2.22,2.63
		c0.51,1.15,0.76,2.54,0.76,4.15v0.02c0,0.89-0.11,1.84-0.32,2.85c-0.21,1.01-0.52,2.01-0.91,3c-0.06,0.15-0.13,0.3-0.19,0.45
		c-0.06,0.15-0.13,0.3-0.21,0.45l-4.96,10.65h-3.52L20.07,31.5z M20.23,29.35c0.56-0.74,0.84-1.78,0.84-3.13v-0.02
		c0-1.31-0.28-2.32-0.84-3.04s-1.35-1.08-2.38-1.08c-1.04,0-1.83,0.36-2.39,1.08s-0.84,1.74-0.84,3.06v0.02
		c0,1.34,0.28,2.38,0.84,3.12c0.56,0.73,1.36,1.1,2.39,1.1C18.87,30.46,19.66,30.09,20.23,29.35z"/>
	<path class="st3" d="M30.52,40.19h3.43v5.54l-3.43,3.79V40.19z"/>
	<path class="st3" d="M43.11,43.22c-0.97-0.59-1.71-1.44-2.22-2.56c-0.51-1.12-0.76-2.47-0.76-4.06v-0.02c0-0.92,0.1-1.89,0.3-2.9
		c0.2-1.01,0.5-2.01,0.88-2.99c0.06-0.17,0.13-0.34,0.21-0.5c0.07-0.17,0.15-0.33,0.22-0.49l5.06-10.7h3.52L44.4,31.38l0.02-0.62
		c0.27-0.54,0.66-0.95,1.17-1.25c0.51-0.3,1.11-0.44,1.79-0.44c1.21,0,2.24,0.29,3.11,0.87s1.52,1.43,1.97,2.54
		c0.45,1.11,0.67,2.45,0.67,4.01v0.02c0,1.6-0.25,2.96-0.76,4.1c-0.51,1.14-1.25,2.01-2.23,2.6c-0.98,0.59-2.15,0.89-3.52,0.89
		C45.25,44.1,44.08,43.81,43.11,43.22z M49.02,39.72c0.56-0.68,0.84-1.66,0.84-2.92v-0.02c0-1.39-0.29-2.46-0.88-3.22
		s-1.42-1.14-2.51-1.14c-0.97,0-1.72,0.38-2.26,1.14c-0.53,0.76-0.8,1.84-0.8,3.23v0.02c0,1.26,0.28,2.24,0.84,2.91
		c0.56,0.68,1.35,1.02,2.38,1.02C47.66,40.75,48.46,40.41,49.02,39.72z"/>
</g>
<g>
</g>
<g>
</g>
<g>
</g>
<g>
</g>
<g>
</g>
</svg>
